<?xml version="1.0" encoding="UTF-8"?>
<!-- Generator: Adobe Illustrator 19.1.0, SVG Export Plug-In . SVG Version: 6.00 Build 0)  -->
<svg xmlns="http://www.w3.org/2000/svg" xmlns:xlink="http://www.w3.org/1999/xlink" xmlns:dc="http://purl.org/dc/elements/1.1/" xmlns:cc="http://creativecommons.org/ns#" xmlns:rdf="http://www.w3.org/1999/02/22-rdf-syntax-ns#" version="1.1" id="DESIGNS" x="0px" y="0px" width="32px" height="32px" viewBox="0 0 32 32" style="enable-background:new 0 0 32 32;" xml:space="preserve">
<title property="dc:title">to charge</title><desc property="dc:description">An icon for "charge" from the Blueprint series on to [icon]. Downloaded from http://www.toicon.com/icons/blueprint_charge by 152.204.131.174 on 2017-06-24. Licensed CC-BY, see http://toicon.com/license/ for details.</desc>
<path class="blueprint_een" d="M31,11h-1V7c0-0.552-0.448-1-1-1H1C0.448,6,0,6.448,0,7v18c0,0.552,0.448,1,1,1h28  c0.552,0,1-0.448,1-1v-4h1c0.552,0,1-0.448,1-1v-8C32,11.448,31.552,11,31,11z M28,24H2V8h26V24z M30,19h-1v-6h1V19z M20,14h-2l4-4  H12l-1,5h2l-2,7L20,14z M12.22,14l0.6-3h6.766l-4,4h1.784l-4.463,3.967L14.326,14H12.22z" style="fill: #111918;"/>
<metadata><work rdf:about=""><format>image/svg+xml</format><type rdf:resource="http://purl.org/dc/dcmitype/StillImage"/><license rdf:resource="http://creativecommons.org/licenses/by/4.0/"/><attributionname>Shannon E Thomas</attributionname><attributionurl>http://www.toicon.com/icons/blueprint_charge</attributionurl></work></metadata></svg>
