<?xml version="1.0" encoding="UTF-8"?>
<!-- Generator: Adobe Illustrator 19.1.0, SVG Export Plug-In . SVG Version: 6.00 Build 0)  -->
<svg xmlns="http://www.w3.org/2000/svg" xmlns:xlink="http://www.w3.org/1999/xlink" xmlns:dc="http://purl.org/dc/elements/1.1/" xmlns:cc="http://creativecommons.org/ns#" xmlns:rdf="http://www.w3.org/1999/02/22-rdf-syntax-ns#" version="1.1" id="DESIGNS" x="0px" y="0px" width="32px" height="32px" viewBox="0 0 32 32" style="enable-background:new 0 0 32 32;" xml:space="preserve">
<title property="dc:title">to believe</title><desc property="dc:description">An icon for "believe" from the Sharp Corners series on to [icon]. Downloaded from http://www.toicon.com/icons/sharp-corners_believe by 152.204.131.174 on 2017-06-24. Licensed CC-BY, see http://toicon.com/license/ for details.</desc>
<path class="sharpcorners_een" d="M0,13v5h5l3,6h16l3-6h5v-5H0z M3,16H2v-1h1V16z M6,16H5v-1h1V16z M9,16H8v-1h1V16z M12,16h-1v-1h1  V16z M15,16h-1v-1h1V16z M18,16h-1v-1h1V16z M21,16h-1v-1h1V16z M24,16h-1v-1h1V16z M27,16h-1v-1h1V16z M30,16h-1v-1h1V16z M5.05,12  C5.556,6.394,10.262,2,16,2s10.444,4.394,10.95,10H5.05z M10.389,25h2.079l-1.428,5H8.96L10.389,25z M21.611,25l1.429,5h-2.08  l-1.428-5H21.611z" style="fill: #111918;"/>
<metadata><work rdf:about=""><format>image/svg+xml</format><type rdf:resource="http://purl.org/dc/dcmitype/StillImage"/><license rdf:resource="http://creativecommons.org/licenses/by/4.0/"/><attributionname>Shannon E Thomas</attributionname><attributionurl>http://www.toicon.com/icons/sharp-corners_believe</attributionurl></work></metadata></svg>
